<?xml version="1.0" encoding="UTF-8" standalone="no"?>
<!DOCTYPE svg PUBLIC "-//W3C//DTD SVG 1.1//EN" "http://www.w3.org/Graphics/SVG/1.1/DTD/svg11.dtd">
<svg width="100%" height="100%" viewBox="0 0 2254 508" version="1.1" xmlns="http://www.w3.org/2000/svg" xmlns:xlink="http://www.w3.org/1999/xlink" xml:space="preserve" xmlns:serif="http://www.serif.com/" style="fill-rule:evenodd;clip-rule:evenodd;stroke-linejoin:round;stroke-miterlimit:2;">
    <g transform="matrix(4.16667,0,0,4.16667,-8901.7,-1480.04)">
        <g transform="matrix(1.27743,0,0,1,1744.15,111)">
            <g id="Gradient" transform="matrix(1,0,0,1,0.117511,172.55)">
                <g transform="matrix(0.782824,0,0,1,-3826.42,-448.177)">
                    <path d="M5573.43,519.836L5808.16,519.836C5815.25,519.836 5821,525.968 5821,533.521L5821,627.998C5821,635.552 5815.25,641.684 5808.16,641.684L5697.81,641.684C5697.19,641.684 5696.62,641.375 5696.29,640.862C5695.95,640.349 5695.9,639.701 5696.14,639.138C5702,625.702 5729.04,563.647 5729.04,563.647L5729.04,614.317L5747.29,614.317L5747.29,591.12C5747.29,587.037 5747.85,583.432 5748.98,580.304C5750.11,577.176 5751.72,574.7 5753.8,572.876C5755.89,571.051 5758.32,570.139 5761.1,570.139C5764.06,570.139 5766.16,570.899 5767.42,572.42C5768.68,573.94 5769.36,575.96 5769.44,578.479L5769.44,614.317L5787.69,614.317L5787.69,571.703C5787.6,566.664 5785.75,562.559 5782.15,559.388C5778.54,556.217 5774.05,554.631 5768.66,554.631C5763.36,554.631 5758.89,555.739 5755.24,557.954C5753.65,558.921 5752.21,560.016 5750.93,561.239C5750.13,562.01 5748.96,562.266 5747.91,561.902C5746.85,561.537 5746.09,560.614 5745.94,559.511C5745.72,558.275 5745.59,557.368 5745.59,557.368L5731.78,557.368C5731.78,557.368 5730.76,559.713 5729.96,561.537C5729.87,561.746 5729.65,561.862 5729.43,561.815C5729.2,561.769 5729.04,561.573 5729.04,561.346C5729.04,559.553 5729.04,557.368 5729.04,557.368L5715.36,557.368L5700.27,590.931L5685.26,557.368L5664.8,557.368L5665.05,557.89C5663.61,557.197 5662.14,556.632 5660.63,556.195C5657.32,555.239 5653.28,554.761 5648.51,554.761C5643.21,554.761 5638.89,555.739 5635.54,557.693C5632.19,559.648 5629.76,562.081 5628.24,564.991C5626.72,567.902 5625.96,570.791 5625.96,573.658C5625.96,577.393 5627.11,580.847 5629.41,584.018C5631.72,587.189 5635.48,589.6 5640.69,591.251C5642.77,591.859 5644.73,592.445 5646.55,593.01C5648.38,593.575 5649.88,594.291 5651.05,595.16C5652.22,596.029 5652.81,597.202 5652.81,598.679C5652.81,599.721 5652.46,600.568 5651.77,601.22C5651.07,601.872 5650.14,602.35 5648.96,602.654C5647.79,602.958 5646.47,603.11 5644.99,603.11C5643.08,603.11 5640.93,602.567 5638.54,601.481C5636.15,600.395 5633.56,598.592 5630.78,596.072L5623.23,606.107C5626.01,609.061 5629.41,611.363 5633.45,613.014C5637.49,614.665 5641.86,615.49 5646.55,615.49C5652.11,615.49 5656.69,614.534 5660.3,612.623C5663.91,610.712 5666.6,608.214 5668.38,605.13C5670.16,602.045 5671.05,598.766 5671.05,595.291C5671.05,592.424 5670.51,589.969 5669.42,587.928C5668.34,585.886 5666.8,584.127 5664.8,582.65C5662.8,581.173 5660.41,580 5657.63,579.131C5655.63,578.436 5653.59,577.828 5651.5,577.307C5649.42,576.785 5647.7,576.047 5646.36,575.091C5645.01,574.135 5644.38,572.832 5644.47,571.182C5644.47,570.4 5644.77,569.661 5645.38,568.966C5645.99,568.271 5646.83,567.706 5647.92,567.272C5649.01,566.838 5650.33,566.664 5651.9,566.751C5653.63,566.838 5655.52,567.337 5657.56,568.249C5659.61,569.162 5661.45,570.269 5663.1,571.572L5668.02,563.971L5691.1,611.317C5691.1,611.317 5680.33,635.261 5677.91,640.626C5677.62,641.27 5676.98,641.684 5676.28,641.684C5664.94,641.684 5574.37,641.684 5574.37,641.684C5580.42,635.684 5588.73,633.552 5588.73,625.998C5588.57,614.155 5589.29,602.143 5589.98,591.546C5590.18,588.402 5596.95,583.613 5597.12,580.76C5597.38,576.515 5591.02,574.407 5591.09,571.034C5591.45,552.07 5589.47,543.852 5585.92,531.521C5585.92,523.968 5582.29,526.836 5573.43,519.836ZM5664.8,557.368L5672.18,557.368C5672.18,557.368 5670.91,559.388 5669.77,561.194C5669.41,561.755 5668.78,562.081 5668.12,562.044C5667.46,562.008 5666.87,561.616 5666.58,561.019C5665.72,559.26 5664.8,557.368 5664.8,557.368Z" style="fill:url(#_Linear1);"/>
                </g>
                <g transform="matrix(0.671404,0,0,0.857669,-3064.83,-140.906)">
                    <g transform="matrix(130.319,0,0,130.319,5355.74,358)">
                    </g>
                    <text x="5068px" y="358px" style="font-family:'Rubik-Light', 'Rubik';font-weight:300;font-size:130.319px;fill:rgb(183,183,183);">m<tspan x="5177.6px 5243.93px 5285.89px " y="358px 358px 358px ">eta</tspan></text>
                </g>
                <g transform="matrix(0.782824,0,0,1,-3664.17,-185.214)">
                    <path d="M5105.79,378.721C5100.67,378.721 5096.63,377.874 5093.67,376.18C5090.72,374.485 5088.55,372.009 5087.16,368.751C5085.77,365.493 5084.88,361.54 5084.48,356.892C5084.09,352.244 5083.9,346.923 5083.9,340.928C5083.9,335.976 5083.29,332.284 5082.07,329.851C5080.86,327.418 5079.03,325.377 5076.6,323.726L5075.95,323.335C5073.86,321.945 5072.82,320.338 5072.82,318.513L5072.82,316.949C5072.82,315.125 5073.86,313.518 5075.95,312.128L5076.73,311.606C5079.16,309.869 5080.97,307.805 5082.14,305.416C5083.31,303.027 5083.9,299.4 5083.9,294.535C5083.9,288.54 5084.09,283.219 5084.48,278.57C5084.88,273.922 5085.77,269.991 5087.16,266.777C5088.55,263.562 5090.72,261.108 5093.67,259.414C5096.63,257.719 5100.67,256.872 5105.79,256.872L5106.44,256.872C5107.31,256.872 5108.01,257.133 5108.53,257.654C5109.05,258.176 5109.31,258.871 5109.31,259.739L5109.31,261.564C5109.31,262.433 5109.05,263.128 5108.53,263.649C5108.01,264.17 5107.31,264.431 5106.44,264.431L5105.79,264.431C5101.36,264.431 5098.17,265.56 5096.21,267.819C5094.26,270.078 5093.04,273.597 5092.57,278.375C5092.09,283.153 5091.85,289.452 5091.85,297.271C5091.85,302.31 5091.07,306.48 5089.5,309.782C5087.94,313.083 5085.46,315.733 5082.07,317.731C5084.33,319.035 5086.18,320.642 5087.61,322.553C5089.05,324.465 5090.11,326.702 5090.81,329.265C5091.5,331.828 5091.85,334.803 5091.85,338.191C5091.85,345.924 5092.09,352.223 5092.57,357.088C5093.04,361.953 5094.26,365.493 5096.21,367.709C5098.17,369.924 5101.36,371.075 5105.79,371.162L5106.44,371.162C5107.31,371.162 5108.01,371.423 5108.53,371.944C5109.05,372.465 5109.31,373.16 5109.31,374.029L5109.31,375.854C5109.31,376.723 5109.05,377.418 5108.53,377.939C5108.01,378.46 5107.31,378.721 5106.44,378.721L5105.79,378.721Z" style="fill:rgb(67,67,67);fill-rule:nonzero;"/>
                </g>
                <g transform="matrix(0.782824,0,0,1,-3436.4,-185.214)">
                    <path d="M5075.04,256.872C5080.16,256.872 5084.2,257.719 5087.16,259.414C5090.11,261.108 5092.28,263.584 5093.67,266.842C5095.06,270.1 5095.95,274.053 5096.34,278.701C5096.73,283.349 5096.93,288.67 5096.93,294.665C5096.93,299.617 5097.54,303.288 5098.76,305.677C5099.97,308.066 5101.8,310.129 5104.23,311.867L5104.88,312.258C5106.97,313.648 5108.01,315.255 5108.01,317.08L5108.01,318.644C5108.01,320.468 5106.97,322.075 5104.88,323.465L5104.1,323.987C5101.67,325.637 5099.86,327.679 5098.69,330.112C5097.52,332.544 5096.93,336.193 5096.93,341.059C5096.93,347.053 5096.73,352.375 5096.34,357.023C5095.95,361.671 5095.06,365.602 5093.67,368.816C5092.28,372.031 5090.11,374.485 5087.16,376.18C5084.2,377.874 5080.16,378.721 5075.04,378.721L5074.39,378.721C5073.52,378.721 5072.82,378.46 5072.3,377.939C5071.78,377.418 5071.52,376.723 5071.52,375.854L5071.52,374.029C5071.52,373.16 5071.78,372.465 5072.3,371.944C5072.82,371.423 5073.52,371.162 5074.39,371.162L5075.04,371.162C5079.56,371.075 5082.77,369.924 5084.68,367.709C5086.59,365.493 5087.79,361.975 5088.27,357.153C5088.74,352.331 5088.98,346.054 5088.98,338.322C5088.98,333.196 5089.76,329.004 5091.33,325.746C5092.89,322.488 5095.37,319.86 5098.76,317.862C5096.5,316.472 5094.65,314.843 5093.22,312.975C5091.78,311.107 5090.72,308.891 5090.02,306.328C5089.33,303.766 5088.98,300.79 5088.98,297.402C5088.98,289.582 5088.74,283.262 5088.27,278.44C5087.79,273.618 5086.59,270.078 5084.68,267.819C5082.77,265.56 5079.56,264.431 5075.04,264.431L5074.39,264.431C5073.52,264.431 5072.82,264.17 5072.3,263.649C5071.78,263.128 5071.52,262.433 5071.52,261.564L5071.52,259.739C5071.52,258.871 5071.78,258.176 5072.3,257.654C5072.82,257.133 5073.52,256.872 5074.39,256.872L5075.04,256.872Z" style="fill:rgb(67,67,67);fill-rule:nonzero;"/>
                </g>
            </g>
        </g>
    </g>
    <defs>
        <linearGradient id="_Linear1" x1="0" y1="0" x2="1" y2="0" gradientUnits="userSpaceOnUse" gradientTransform="matrix(247.569,0,0,121.848,5573.43,580.76)"><stop offset="0" style="stop-color:white;stop-opacity:0"/><stop offset="0.45" style="stop-color:rgb(107,107,107);stop-opacity:0.79"/><stop offset="1" style="stop-color:rgb(67,67,67);stop-opacity:1"/></linearGradient>
    </defs>
</svg>
