<?xml version="1.0" encoding="UTF-8" standalone="no"?><!DOCTYPE svg PUBLIC "-//W3C//DTD SVG 1.1//EN" "http://www.w3.org/Graphics/SVG/1.1/DTD/svg11.dtd"><svg width="100%" height="100%" viewBox="0 0 2688 508" version="1.1" xmlns="http://www.w3.org/2000/svg" xmlns:xlink="http://www.w3.org/1999/xlink" xml:space="preserve" xmlns:serif="http://www.serif.com/" style="fill-rule:evenodd;clip-rule:evenodd;stroke-linejoin:round;stroke-miterlimit:2;"><g id="Gradient"><path d="M2294.12,0c1.609,-0 3.152,0.639 4.29,1.777c1.138,1.138 1.777,2.681 1.777,4.29c0,49.674 0,387.605 0,387.605l76.02,0l-0,-96.653c-0,-17.014 2.353,-32.037 7.059,-45.069c4.706,-13.032 11.403,-23.348 20.091,-30.95c8.688,-7.602 18.823,-11.403 30.407,-11.403c12.308,-0 21.087,3.167 26.336,9.502c5.249,6.335 8.054,14.751 8.416,25.249l0,149.324l76.02,0l-0,-177.559c-0.362,-20.996 -8.055,-38.101 -23.078,-51.314c-15.023,-13.212 -33.756,-19.819 -56.2,-19.819c-22.082,0 -40.725,4.616 -55.928,13.846c-6.663,4.046 -12.666,8.63 -18.008,13.753c-2.835,2.725 -7.024,3.494 -10.643,1.953c-3.618,-1.541 -5.967,-5.094 -5.967,-9.026c-0.134,-46.377 -0.134,-135.464 -0.134,-159.439c-0,-1.609 0.639,-3.152 1.777,-4.29c1.138,-1.138 2.681,-1.777 4.29,-1.777l253.023,0c29.524,0 53.493,25.552 53.493,57.024l0,393.654c0,31.472 -23.969,57.024 -53.493,57.024c0,-0 -787.88,-0 -893.141,-0c-2.556,-0 -4.94,-1.289 -6.341,-3.427c-1.4,-2.138 -1.629,-4.838 -0.607,-7.181c24.401,-55.986 137.098,-314.549 137.098,-314.549l0,211.127l76.02,0l-0,-96.653c-0,-17.014 2.353,-32.037 7.059,-45.069c4.705,-13.032 11.402,-23.348 20.09,-30.95c8.688,-7.602 18.824,-11.403 30.408,-11.403c12.308,-0 21.087,3.167 26.336,9.502c5.248,6.335 8.054,14.751 8.416,25.249l-0,149.324l76.019,0l0,-177.559c-0.362,-20.996 -8.054,-38.101 -23.077,-51.314c-15.023,-13.212 -33.756,-19.819 -56.2,-19.819c-22.082,0 -40.725,4.616 -55.929,13.846c-6.635,4.029 -12.615,8.592 -17.941,13.689c-3.351,3.213 -8.219,4.278 -12.606,2.76c-4.387,-1.519 -7.555,-5.366 -8.203,-9.963c-0.898,-5.147 -1.431,-8.929 -1.431,-8.929l-57.558,-0c-0,-0 -4.26,9.774 -7.572,17.374c-0.379,0.867 -1.314,1.351 -2.24,1.157c-0.927,-0.193 -1.591,-1.009 -1.591,-1.956c0,-7.468 0,-16.575 0,-16.575l-57.015,-0l-62.898,139.847l-62.534,-139.847l-85.25,-0l1.06,2.174c-5.994,-2.884 -12.139,-5.238 -18.436,-7.061c-13.756,-3.982 -30.589,-5.973 -50.499,-5.973c-22.082,0 -40.091,4.073 -54.028,12.217c-13.937,8.145 -24.073,18.281 -30.408,30.408c-6.335,12.127 -9.502,24.164 -9.502,36.11c-0,15.565 4.796,29.955 14.389,43.168c9.593,13.213 25.25,23.258 46.969,30.136c8.688,2.534 16.833,4.978 24.435,7.331c7.602,2.352 13.847,5.339 18.734,8.959c4.887,3.62 7.33,8.507 7.33,14.661c0,4.344 -1.448,7.873 -4.344,10.588c-2.896,2.715 -6.787,4.706 -11.674,5.973c-4.887,1.267 -10.408,1.901 -16.562,1.901c-7.964,-0 -16.923,-2.263 -26.878,-6.788c-9.955,-4.525 -20.724,-12.036 -32.308,-22.534l-31.494,41.811c11.584,12.308 25.792,21.901 42.625,28.778c16.833,6.878 35.023,10.317 54.571,10.317c23.168,0 42.264,-3.982 57.286,-11.946c15.023,-7.963 26.245,-18.371 33.666,-31.222c7.421,-12.851 11.132,-26.516 11.132,-40.996c-0,-11.946 -2.263,-22.172 -6.788,-30.679c-4.525,-8.507 -10.95,-15.838 -19.276,-21.992c-8.326,-6.154 -18.281,-11.041 -29.865,-14.661c-8.326,-2.896 -16.833,-5.43 -25.521,-7.602c-8.688,-2.172 -15.837,-5.249 -21.448,-9.231c-5.611,-3.981 -8.236,-9.411 -7.874,-16.289c0,-3.258 1.267,-6.335 3.801,-9.231c2.534,-2.896 6.064,-5.249 10.589,-7.059c4.525,-1.81 10.045,-2.534 16.561,-2.172c7.24,0.362 15.114,2.443 23.62,6.244c8.507,3.801 16.2,8.417 23.078,13.847l20.471,-31.673l96.167,197.277c-0,-0 -44.872,99.765 -54.926,122.119c-1.206,2.683 -3.875,4.409 -6.816,4.409c-47.229,-0 -424.619,-0 -424.619,-0c25.198,-25 59.858,-33.885 59.858,-65.358c-0.67,-49.345 2.316,-99.399 5.178,-143.55c0.85,-13.101 29.049,-33.054 29.778,-44.943c1.084,-17.687 -25.435,-26.47 -25.162,-40.523c1.539,-79.018 -6.753,-113.26 -21.52,-164.637c0,-31.473 -15.117,-19.524 -52.041,-48.691l1071.83,0Zm-691.14,156.383c14.112,-0 19.19,-0 30.776,-0c0,-0 -5.313,8.419 -10.061,15.943c-1.476,2.338 -4.102,3.694 -6.863,3.543c-2.761,-0.152 -5.224,-1.786 -6.436,-4.272c-3.572,-7.328 -7.416,-15.214 -7.416,-15.214Zm554.399,-104.255l0,103.169l-36.924,-0l0,59.187l36.924,-0l0,179.188l76.02,0l-0,-179.188l57.557,-0l0,-59.187l-57.557,-0l-0,-103.169l-76.02,-0Z" style="fill:url(#_Linear1);"/><g transform="matrix(465.711,0,0,465.711,1192.7,393.672)"></g><text x="164.411px" y="393.672px" style="font-family:'Rubik-Light', 'Rubik';font-weight:300;font-size:465.711px;fill:#b7b7b7;">m<tspan x="556.075px 793.122px 943.081px " y="393.672px 393.672px 393.672px ">eta</tspan></text><path d="M137.378,507.702c-21.358,-0 -38.191,-3.53 -50.499,-10.589c-12.307,-7.059 -21.357,-17.376 -27.149,-30.951c-5.792,-13.574 -9.503,-30.045 -11.132,-49.412c-1.629,-19.367 -2.443,-41.539 -2.443,-66.517c-0,-20.634 -2.534,-36.019 -7.602,-46.155c-5.068,-10.136 -12.67,-18.643 -22.806,-25.521l-2.715,-1.629c-8.688,-5.792 -13.032,-12.489 -13.032,-20.091l-0,-6.516c-0,-7.602 4.344,-14.299 13.032,-20.091l3.258,-2.171c10.136,-7.24 17.647,-15.838 22.534,-25.793c4.887,-9.955 7.331,-25.068 7.331,-45.34c-0,-24.978 0.814,-47.15 2.443,-66.517c1.629,-19.367 5.34,-35.747 11.132,-49.141c5.792,-13.394 14.842,-23.621 27.149,-30.68c12.308,-7.059 29.141,-10.588 50.499,-10.588l2.715,-0c3.62,-0 6.516,1.086 8.688,3.258c2.172,2.172 3.258,5.068 3.258,8.688l0,7.602c0,3.62 -1.086,6.516 -3.258,8.688c-2.172,2.172 -5.068,3.258 -8.688,3.258l-2.715,-0c-18.462,-0 -31.765,4.706 -39.91,14.118c-8.145,9.412 -13.213,24.073 -15.204,43.982c-1.991,19.91 -2.987,46.155 -2.987,78.735c0,20.996 -3.257,38.372 -9.773,52.128c-6.516,13.755 -16.833,24.796 -30.951,33.122c9.412,5.43 17.104,12.127 23.077,20.091c5.973,7.964 10.408,17.286 13.304,27.965c2.895,10.678 4.343,23.077 4.343,37.195c0,32.218 0.996,58.462 2.987,78.734c1.991,20.272 7.059,35.024 15.204,44.254c8.145,9.231 21.448,14.028 39.91,14.39l2.715,-0c3.62,-0 6.516,1.086 8.688,3.258c2.172,2.172 3.258,5.068 3.258,8.688l0,7.602c0,3.62 -1.086,6.516 -3.258,8.688c-2.172,2.172 -5.068,3.258 -8.688,3.258l-2.715,-0Z" style="fill:#434343;fill-rule:nonzero;"/><path d="M1221.6,0c21.358,0 38.191,3.529 50.499,10.588c12.308,7.059 21.357,17.376 27.149,30.951c5.792,13.575 9.503,30.046 11.132,49.413c1.629,19.367 2.443,41.539 2.443,66.517c0,20.634 2.534,35.928 7.602,45.883c5.068,9.955 12.67,18.553 22.806,25.793l2.715,1.628c8.688,5.792 13.032,12.489 13.032,20.091l0,6.516c0,7.602 -4.344,14.299 -13.032,20.091l-3.258,2.172c-10.136,6.878 -17.647,15.385 -22.534,25.521c-4.887,10.136 -7.331,25.34 -7.331,45.612c0,24.978 -0.814,47.15 -2.443,66.517c-1.629,19.367 -5.34,35.747 -11.132,49.141c-5.792,13.394 -14.841,23.62 -27.149,30.679c-12.308,7.059 -29.141,10.589 -50.499,10.589l-2.715,-0c-3.62,-0 -6.516,-1.086 -8.688,-3.258c-2.172,-2.172 -3.258,-5.068 -3.258,-8.688l0,-7.602c0,-3.62 1.086,-6.516 3.258,-8.688c2.172,-2.172 5.068,-3.258 8.688,-3.258l2.715,-0c18.824,-0.362 32.218,-5.159 40.182,-14.39c7.964,-9.23 12.941,-23.891 14.932,-43.982c1.991,-20.091 2.987,-46.245 2.987,-78.463c-0,-21.358 3.258,-38.824 9.774,-52.399c6.515,-13.575 16.832,-24.526 30.95,-32.852c-9.412,-5.792 -17.104,-12.579 -23.077,-20.362c-5.973,-7.783 -10.407,-17.014 -13.303,-27.693c-2.896,-10.679 -4.344,-23.077 -4.344,-37.195c-0,-32.58 -0.996,-58.915 -2.987,-79.006c-1.991,-20.091 -6.968,-34.842 -14.932,-44.254c-7.964,-9.412 -21.358,-14.118 -40.182,-14.118l-2.715,-0c-3.62,-0 -6.516,-1.086 -8.688,-3.258c-2.172,-2.172 -3.258,-5.068 -3.258,-8.688l0,-7.602c0,-3.62 1.086,-6.516 3.258,-8.688c2.172,-2.172 5.068,-3.258 8.688,-3.258l2.715,0Z" style="fill:#434343;fill-rule:nonzero;"/></g><defs><linearGradient id="_Linear1" x1="0" y1="0" x2="1" y2="0" gradientUnits="userSpaceOnUse" gradientTransform="matrix(1466.67,0,0,1466.67,1220.5,0)"><stop offset="0" style="stop-color:#f1f1f1;stop-opacity:0.25"/><stop offset="0.33" style="stop-color:#000;stop-opacity:0.4"/><stop offset="1" style="stop-color:#000;stop-opacity:1"/></linearGradient></defs></svg>